<svg width="1920" height="2569" viewBox="0 0 1920 2569" fill="none" xmlns="http://www.w3.org/2000/svg">
<g opacity="0.7" clip-path="url(#clip0)">
<rect width="1920" height="2569" transform="translate(1920 2569) rotate(-180)" fill="#111827"/>
<g filter="url(#filter0_f)">
<ellipse cx="583" cy="-87.0001" rx="683" ry="623" transform="rotate(-180 583 -87.0001)" fill="#4D3589"/>
</g>
<g filter="url(#filter1_f)">
<ellipse cx="840" cy="287" rx="213" ry="194" transform="rotate(-180 840 287)" fill="#D9828A"/>
</g>
<g filter="url(#filter2_f)">
<ellipse cx="1650.89" cy="160.067" rx="651.829" ry="344.872" transform="rotate(-169.459 1650.89 160.067)" fill="#041F7C"/>
</g>
<g filter="url(#filter3_f)">
<path d="M1163 170C1722.26 199.512 1894.5 726.5 2089 711.5C2333.5 692.644 2287.94 198.339 2089 10C1854.5 -212 784.001 150 1163 170Z" fill="#7715A5"/>
</g>
<g filter="url(#filter4_f)">
<path d="M1763 131.5C1934.76 131.5 2015.5 40.1647 2015.5 -83.0003C2015.5 -340 499.335 -431.379 269.736 -217.056C101.002 -59.5469 122.638 162.245 300.5 241C501.5 330 624.521 311.353 822 241C986.772 182.299 1040.44 127.003 1221.5 77.4998C1390.97 31.1649 1610.43 131.5 1763 131.5Z" fill="url(#paint0_linear)"/>
</g>
<g filter="url(#filter5_f)">
<ellipse cx="1919.5" cy="358" rx="295.5" ry="265" transform="rotate(-180 1919.5 358)" fill="#303E57"/>
</g>
</g>
<defs>
<filter id="filter0_f" x="-400" y="-1010" width="1966" height="1846" filterUnits="userSpaceOnUse" color-interpolation-filters="sRGB">
<feFlood flood-opacity="0" result="BackgroundImageFix"/>
<feBlend mode="normal" in="SourceGraphic" in2="BackgroundImageFix" result="shape"/>
<feGaussianBlur stdDeviation="150" result="effect1_foregroundBlur"/>
</filter>
<filter id="filter1_f" x="327" y="-207" width="1026" height="988" filterUnits="userSpaceOnUse" color-interpolation-filters="sRGB">
<feFlood flood-opacity="0" result="BackgroundImageFix"/>
<feBlend mode="normal" in="SourceGraphic" in2="BackgroundImageFix" result="shape"/>
<feGaussianBlur stdDeviation="150" result="effect1_foregroundBlur"/>
</filter>
<filter id="filter2_f" x="606.919" y="-599.44" width="2087.95" height="1519.02" filterUnits="userSpaceOnUse" color-interpolation-filters="sRGB">
<feFlood flood-opacity="0" result="BackgroundImageFix"/>
<feBlend mode="normal" in="SourceGraphic" in2="BackgroundImageFix" result="shape"/>
<feGaussianBlur stdDeviation="200" result="effect1_foregroundBlur"/>
</filter>
<filter id="filter3_f" x="882.565" y="-261.777" width="1573.16" height="1173.59" filterUnits="userSpaceOnUse" color-interpolation-filters="sRGB">
<feFlood flood-opacity="0" result="BackgroundImageFix"/>
<feBlend mode="normal" in="SourceGraphic" in2="BackgroundImageFix" result="shape"/>
<feGaussianBlur stdDeviation="100" result="effect1_foregroundBlur"/>
</filter>
<filter id="filter4_f" x="-45.5967" y="-536.655" width="2261.1" height="1037.62" filterUnits="userSpaceOnUse" color-interpolation-filters="sRGB">
<feFlood flood-opacity="0" result="BackgroundImageFix"/>
<feBlend mode="normal" in="SourceGraphic" in2="BackgroundImageFix" result="shape"/>
<feGaussianBlur stdDeviation="100" result="effect1_foregroundBlur"/>
</filter>
<filter id="filter5_f" x="1324" y="-207" width="1191" height="1130" filterUnits="userSpaceOnUse" color-interpolation-filters="sRGB">
<feFlood flood-opacity="0" result="BackgroundImageFix"/>
<feBlend mode="normal" in="SourceGraphic" in2="BackgroundImageFix" result="shape"/>
<feGaussianBlur stdDeviation="150" result="effect1_foregroundBlur"/>
</filter>
<linearGradient id="paint0_linear" x1="1084.95" y1="300.96" x2="1084.95" y2="-7.00014" gradientUnits="userSpaceOnUse">
<stop stop-color="#041F7C"/>
<stop offset="1" stop-color="#111827" stop-opacity="0"/>
</linearGradient>
<clipPath id="clip0">
<rect width="1920" height="2569" fill="white" transform="translate(1920 2569) rotate(-180)"/>
</clipPath>
</defs>
</svg>
